<?xml version="1.0" encoding="utf-8"?>
<!-- Generator: Adobe Illustrator 24.3.0, SVG Export Plug-In . SVG Version: 6.00 Build 0)  -->
<svg version="1.1" id="Layer_1" xmlns="http://www.w3.org/2000/svg" xmlns:xlink="http://www.w3.org/1999/xlink" x="0px" y="0px"
	 viewBox="0 0 42 42" style="enable-background:new 0 0 42 42;" xml:space="preserve">
<style type="text/css">
	.st0{fill-rule:evenodd;clip-rule:evenodd;fill:none;stroke:#0064FB;}
	.st1{fill:#0064FB;}
</style>
<path class="st0" d="M1,21C1,10,10,1,21,1s20,9,20,20s-9,20-20,20S1,32,1,21z"/>
<path class="st1" d="M35.8,24.1c-0.1,0.3-0.1,0.6-0.2,0.9c0,0.2-0.1,0.4-0.1,0.6c-0.1,0.5-0.2,1.1-0.4,1.5c-0.2,0.5-0.5,0.9-1,1.2
	c-0.5,0.3-1.1,0.2-1.8,0l-4.7-1.6h0c-0.3-0.1-0.8-0.3-1.2-0.6c-0.5-0.4-0.8-0.9-0.7-1.7l0.2-2.2c-0.8-0.3-2.4-0.7-4.5-0.7
	c-2.1,0-3.8,0.5-4.5,0.7l0.2,2.2c0.1,0.8-0.2,1.4-0.7,1.7c-0.4,0.3-0.9,0.5-1.2,0.6h0l-4.7,1.6c-0.7,0.2-1.3,0.3-1.8,0
	c-0.5-0.2-0.8-0.7-1-1.2c-0.2-0.5-0.3-1-0.4-1.5c0-0.2-0.1-0.4-0.1-0.6c0-0.3-0.1-0.6-0.2-0.9c-0.2-0.9-0.4-2,0.2-3.2
	c0.7-1.2,2.1-2.3,4.8-3.5c3.8-1.7,7.4-1.8,9.4-1.8c1.9,0,5.5,0.1,9.3,1.8c2.8,1.2,4.2,2.4,4.9,3.5C36.2,22.1,36,23.2,35.8,24.1z"/>
</svg>
