<?xml version="1.0" encoding="utf-8"?>
<!-- Generator: Adobe Illustrator 24.3.0, SVG Export Plug-In . SVG Version: 6.00 Build 0)  -->
<svg version="1.1" id="Layer_1" xmlns="http://www.w3.org/2000/svg" xmlns:xlink="http://www.w3.org/1999/xlink" x="0px" y="0px"
	 viewBox="0 0 42 42" style="enable-background:new 0 0 42 42;" xml:space="preserve">
<style type="text/css">
	.st0{fill-rule:evenodd;clip-rule:evenodd;fill:none;stroke:#0064FB;}
	.st1{fill:#0064FB;}
	.st2{fill-rule:evenodd;clip-rule:evenodd;fill:#0064FB;}
</style>
<path class="st0" d="M1,21C1,10,10,1,21,1s20,9,20,20s-9,20-20,20S1,32,1,21z"/>
<path class="st1" d="M26.5,13.2v9.4c0,2.9-2.3,5.2-5.2,5.2c-2.9,0-5.2-2.3-5.2-5.2v-9.4c0-2.9,2.3-5.2,5.2-5.2
	C24.2,8,26.5,10.3,26.5,13.2z"/>
<path class="st2" d="M14.5,22c0.3,0,0.5,0.2,0.5,0.5c0,3.4,2.8,6.2,6.2,6.2s6.2-2.8,6.2-6.2c0-0.3,0.2-0.5,0.5-0.5
	c0.3,0,0.5,0.2,0.5,0.5c0,4-3.3,7.3-7.3,7.3S14,26.6,14,22.5C14,22.2,14.2,22,14.5,22z"/>
<path class="st2" d="M21.3,28.8c0.3,0,0.5,0.2,0.5,0.5v5.1c0,0.3-0.2,0.5-0.5,0.5c-0.3,0-0.5-0.2-0.5-0.5v-5.1
	C20.8,29,21,28.8,21.3,28.8z"/>
</svg>
