<?xml version="1.0" encoding="utf-8"?>
<!-- Generator: Adobe Illustrator 24.3.0, SVG Export Plug-In . SVG Version: 6.00 Build 0)  -->
<svg version="1.1" id="Layer_1" xmlns="http://www.w3.org/2000/svg" xmlns:xlink="http://www.w3.org/1999/xlink" x="0px" y="0px"
	 viewBox="0 0 42 42" style="enable-background:new 0 0 42 42;" xml:space="preserve">
<style type="text/css">
	.st0{fill-rule:evenodd;clip-rule:evenodd;fill:none;stroke:#0064FB;}
	.st1{fill-rule:evenodd;clip-rule:evenodd;fill:#0064FB;}
</style>
<path class="st0" d="M1,21C1,10,10,1,21,1s20,9,20,20s-9,20-20,20S1,32,1,21z"/>
<path class="st1" d="M10,20.8c0-1.5,1.3-2.8,2.8-2.8s2.8,1.3,2.8,2.8s-1.3,2.8-2.8,2.8S10,22.3,10,20.8z"/>
<path class="st1" d="M17.9,20.8c0-1.5,1.3-2.8,2.8-2.8c1.5,0,2.8,1.3,2.8,2.8s-1.3,2.8-2.8,2.8C19.1,23.6,17.9,22.3,17.9,20.8z"/>
<path class="st1" d="M25.8,20.8c0-1.5,1.3-2.8,2.8-2.8c1.5,0,2.8,1.3,2.8,2.8s-1.3,2.8-2.8,2.8C27,23.6,25.8,22.3,25.8,20.8z"/>
</svg>
